<?xml version="1.0" standalone="no"?>
<!DOCTYPE svg PUBLIC "-//W3C//DTD SVG 20010904//EN"
 "http://www.w3.org/TR/2001/REC-SVG-20010904/DTD/svg10.dtd">
<svg version="1.0" xmlns="http://www.w3.org/2000/svg"
 width="510.000000pt" height="119.000000pt" viewBox="0 0 510.000000 119.000000"
 preserveAspectRatio="xMidYMid meet">

<g transform="translate(0.000000,119.000000) scale(0.100000,-0.100000)"
fill="#000000" stroke="none">
<path d="M4340 1159 c-161 -19 -287 -112 -356 -263 -101 -222 -5 -484 216
-591 40 -18 96 -37 126 -41 l55 -6 68 66 c38 36 68 66 68 66 -1 0 -29 -5 -62
-10 -82 -13 -164 2 -230 44 -148 95 -198 268 -126 432 24 54 96 125 158 155
69 33 180 38 255 9 71 -26 151 -97 186 -164 22 -43 26 -64 27 -136 0 -47 -4
-98 -8 -113 -6 -24 3 -17 63 42 l71 71 -7 52 c-15 117 -111 266 -209 324 -90
52 -194 75 -295 63z"/>
<path d="M1917 695 c-81 -162 -147 -297 -147 -300 0 -3 88 -5 195 -5 l195 0 0
208 0 208 -45 92 c-24 51 -46 92 -47 92 -2 0 -69 -133 -151 -295z"/>
<path d="M30 690 l0 -240 49 0 48 0 7 46 c3 26 6 66 6 90 l0 44 110 0 110 0 0
40 0 40 -110 0 -110 0 0 70 0 70 125 0 125 0 0 40 0 40 -180 0 -180 0 0 -240z"/>
<path d="M470 690 l0 -240 55 0 55 0 0 240 0 240 -55 0 -55 0 0 -240z"/>
<path d="M700 690 l0 -240 50 0 50 0 0 145 c0 80 3 145 8 145 4 -1 60 -66 125
-145 l118 -145 45 0 44 0 0 240 0 240 -55 0 -55 0 0 -142 -1 -143 -32 35 c-17
20 -71 84 -120 143 l-87 107 -45 0 -45 0 0 -240z"/>
<path d="M1250 690 l0 -242 153 4 c178 5 217 17 276 85 100 113 68 295 -64
363 -46 23 -61 25 -207 28 l-158 3 0 -241z m304 131 c69 -39 92 -116 58 -195
-28 -62 -77 -85 -179 -86 l-73 0 0 148 c0 82 3 152 6 155 12 12 159 -5 188
-22z"/>
<path d="M2420 689 l0 -241 148 4 c123 3 154 7 192 24 99 46 146 129 137 240
-6 75 -38 132 -96 171 -52 35 -95 43 -243 43 l-138 0 0 -241z m299 132 c69
-34 94 -144 48 -212 -33 -50 -79 -69 -164 -69 l-73 0 0 155 0 155 78 -6 c42
-3 92 -14 111 -23z"/>
<path d="M2990 690 l0 -240 185 0 185 0 0 45 0 45 -135 0 -135 0 0 55 0 55
115 0 115 0 0 45 0 45 -116 0 -115 0 3 53 3 52 128 3 127 3 0 39 0 40 -180 0
-180 0 0 -240z"/>
<path d="M3394 914 c3 -9 49 -117 102 -240 l97 -225 55 3 55 3 103 238 103
238 -56 -3 -56 -3 -73 -170 -72 -169 -24 54 c-13 30 -46 108 -74 172 l-49 118
-59 0 c-49 0 -57 -2 -52 -16z"/>
<path d="M4230 851 c-57 -81 -65 -158 -24 -240 30 -59 60 -79 92 -62 32 17 36
47 12 81 -34 47 -35 88 -6 143 30 56 32 70 10 91 -25 25 -60 20 -84 -13z"/>
</g>
</svg>
